<svg version="1.1" id="Layer_1" xmlns="http://www.w3.org/2000/svg" xmlns:xlink="http://www.w3.org/1999/xlink" x="0px" y="0px" width="512px" height="512px" viewBox="0 0 512 512" enable-background="new 0 0 512 512" xml:space="preserve">
<g id="Layer_1_1_">
<g id="down">
<g>
<path d="M482.04,147.3c0.1,4.68-1.62,9.11-4.86,12.49L269.96,376.41c-3.26,3.41-7.85,5.38-12.58,5.399h-0.07
				c-4.709,0-9.29-1.939-12.569-5.319L34.89,159.86c-3.18-3.28-4.93-7.61-4.93-12.17c0-4.78,1.89-9.25,5.32-12.57
				c3.28-3.18,7.61-4.93,12.18-4.93c4.78,0,9.24,1.89,12.57,5.32L257.23,339.08L451.9,135.59c3.279-3.43,7.89-5.4,12.64-5.4
				c4.53,0,8.83,1.72,12.1,4.85C480.02,138.27,481.94,142.63,482.04,147.3z" id="id_101" style="fill: rgb(192, 0, 230);"></path>
</g>
</g>
</g>
</svg>